<svg width="20" height="20" viewBox="0 0 20 20" fill="none" xmlns="http://www.w3.org/2000/svg">
<path d="M13.998 16.555C13.2222 17.3071 12.3751 17.1883 11.5597 16.8321C10.6968 16.4679 9.90509 16.4521 8.99467 16.8321C7.85467 17.3229 7.25301 17.1804 6.57217 16.555C2.70884 12.5729 3.27884 6.50875 7.66467 6.28708C8.73342 6.3425 9.47759 6.87292 10.103 6.92042C11.0372 6.73042 11.9318 6.18417 12.9293 6.25542C14.1247 6.35042 15.0272 6.82542 15.6209 7.68042C13.1509 9.16083 13.7368 12.4146 16.0009 13.325C15.5497 14.5125 14.9638 15.6921 13.9901 16.5629L13.998 16.555ZM10.0238 6.23958C9.90509 4.47417 11.338 3.0175 12.9847 2.875C13.2143 4.9175 11.1322 6.4375 10.0238 6.23958Z" fill="#334155"/>
</svg>
