<svg width="19" height="20" viewBox="0 0 19 20" fill="none" xmlns="http://www.w3.org/2000/svg">
<g clip-path="url(#clip0_2014_5002)">
<path d="M17.063 3.66669C16.991 3.65928 16.9185 3.65928 16.8466 3.66669H2.06878C1.97407 3.66815 1.87999 3.68235 1.78906 3.70891L9.41545 11.3036L17.063 3.66669Z" fill="#334155"/>
<path d="M17.8441 4.40027L10.1597 12.053C9.96189 12.2496 9.69436 12.36 9.4155 12.36C9.13664 12.36 8.8691 12.2496 8.67133 12.053L1.0555 4.45832C1.03209 4.54437 1.01967 4.63304 1.01855 4.72221V15.2778C1.01855 15.5577 1.12976 15.8262 1.32772 16.0242C1.52567 16.2221 1.79416 16.3333 2.07411 16.3333H16.8519C17.1318 16.3333 17.4003 16.2221 17.5983 16.0242C17.7962 15.8262 17.9074 15.5577 17.9074 15.2778V4.72221C17.9032 4.61225 17.8819 4.50363 17.8441 4.40027ZM2.79717 15.2778H2.06355V14.523L5.9005 10.7178L6.64467 11.4619L2.79717 15.2778ZM16.8413 15.2778H16.1024L12.2549 11.4619L12.9991 10.7178L16.8361 14.523L16.8413 15.2778Z" fill="#334155"/>
</g>
<defs>
<clipPath id="clip0_2014_5002">
<rect width="19" height="19" fill="white" transform="translate(0 0.5)"/>
</clipPath>
</defs>
</svg>
