<svg width="20" height="20" viewBox="0 0 20 20" fill="none" xmlns="http://www.w3.org/2000/svg">
<g clip-path="url(#clip0_2014_4982)">
<path d="M18.3133 10.1846C18.3133 9.50113 18.2567 9.00238 18.1342 8.48517H10.1704V11.57H14.845C14.7508 12.3366 14.2418 13.4911 13.1109 14.2669L13.095 14.3702L15.613 16.2819L15.7875 16.2989C17.3896 14.8488 18.3133 12.7153 18.3133 10.1846Z" fill="#4285F4"/>
<path d="M10.1694 18.3125C12.4595 18.3125 14.3821 17.5736 15.7864 16.299L13.1099 14.267C12.3936 14.7565 11.4323 15.0983 10.1694 15.0983C7.92638 15.0983 6.02263 13.6482 5.344 11.644L5.24453 11.6523L2.62628 13.638L2.59204 13.7313C3.98686 16.4468 6.85194 18.3125 10.1694 18.3125Z" fill="#34A853"/>
<path d="M5.34543 11.644C5.16636 11.1268 5.06273 10.5726 5.06273 10C5.06273 9.42733 5.16636 8.87319 5.33601 8.35597L5.33126 8.24582L2.6802 6.22815L2.59346 6.26858C2.01859 7.3954 1.68872 8.66077 1.68872 10C1.68872 11.3392 2.01859 12.6045 2.59346 13.7314L5.34543 11.644Z" fill="#FBBC05"/>
<path d="M10.1695 4.90164C11.7622 4.90164 12.8366 5.57588 13.4492 6.13932L15.843 3.84875C14.3729 2.50952 12.4596 1.6875 10.1695 1.6875C6.85196 1.6875 3.98687 3.55318 2.59204 6.26857L5.33459 8.35596C6.02265 6.35173 7.92641 4.90164 10.1695 4.90164Z" fill="#EB4335"/>
<g clip-path="url(#clip1_2014_4982)">
<path d="M19.5 10C19.5 5.02947 15.4705 1 10.5 1C5.52947 1 1.5 5.02947 1.5 10C1.5 14.4921 4.79119 18.2155 9.09375 18.8907V12.6016H6.80859V10H9.09375V8.01719C9.09375 5.76156 10.4374 4.51562 12.4932 4.51562C13.4779 4.51562 14.5078 4.69141 14.5078 4.69141V6.90625H13.373C12.2549 6.90625 11.9062 7.60002 11.9062 8.3118V10H14.4023L14.0033 12.6016H11.9062V18.8907C16.2088 18.2155 19.5 14.4922 19.5 10Z" fill="#1877F2"/>
<path d="M14.0033 12.6016L14.4023 10H11.9062V8.3118C11.9062 7.59995 12.2549 6.90625 13.373 6.90625H14.5078V4.69141C14.5078 4.69141 13.4779 4.51562 12.4931 4.51562C10.4374 4.51562 9.09375 5.76156 9.09375 8.01719V10H6.80859V12.6016H9.09375V18.8907C9.55895 18.9636 10.0291 19.0001 10.5 19C10.9709 19.0001 11.441 18.9636 11.9062 18.8907V12.6016H14.0033Z" fill="white"/>
</g>
</g>
<defs>
<clipPath id="clip0_2014_4982">
<rect width="19" height="19" fill="white" transform="translate(0.5 0.5)"/>
</clipPath>
<clipPath id="clip1_2014_4982">
<rect width="18" height="18" fill="white" transform="translate(1.5 1)"/>
</clipPath>
</defs>
</svg>
