<svg width="20" height="20" viewBox="0 0 20 20" fill="none" xmlns="http://www.w3.org/2000/svg">
<path d="M18.3133 10.1846C18.3133 9.50113 18.2567 9.00238 18.1342 8.48517H10.1704V11.57H14.845C14.7508 12.3366 14.2418 13.4911 13.1109 14.2669L13.095 14.3702L15.613 16.2819L15.7875 16.2989C17.3896 14.8488 18.3133 12.7153 18.3133 10.1846Z" fill="#4285F4"/>
<path d="M10.1694 18.3125C12.4595 18.3125 14.3821 17.5736 15.7864 16.299L13.1099 14.267C12.3936 14.7565 11.4323 15.0983 10.1694 15.0983C7.92638 15.0983 6.02263 13.6482 5.344 11.644L5.24453 11.6523L2.62628 13.638L2.59204 13.7313C3.98686 16.4468 6.85194 18.3125 10.1694 18.3125Z" fill="#34A853"/>
<path d="M5.34543 11.644C5.16636 11.1268 5.06273 10.5726 5.06273 10C5.06273 9.42733 5.16636 8.87319 5.33601 8.35597L5.33126 8.24582L2.6802 6.22815L2.59346 6.26858C2.01859 7.3954 1.68872 8.66077 1.68872 10C1.68872 11.3392 2.01859 12.6045 2.59346 13.7314L5.34543 11.644Z" fill="#FBBC05"/>
<path d="M10.1695 4.90164C11.7622 4.90164 12.8366 5.57588 13.4492 6.13932L15.843 3.84875C14.3729 2.50952 12.4596 1.6875 10.1695 1.6875C6.85196 1.6875 3.98687 3.55318 2.59204 6.26857L5.33459 8.35596C6.02265 6.35173 7.92641 4.90164 10.1695 4.90164Z" fill="#EB4335"/>
</svg>
